<?xml version="1.0" encoding="utf-8"?>
<svg version="1.1" xmlns:xlink="http://www.w3.org/1999/xlink" width="215px" height="39px" xmlns="http://www.w3.org/2000/svg">
  <defs>
    <linearGradient gradientUnits="userSpaceOnUse" x1="107.5" y1="0" x2="107.5" y2="39" id="LinearGradient14927">
      <stop id="Stop14928" stop-color="#030e1e" offset="0" />
      <stop id="Stop14929" stop-color="#030e1e" offset="0.15" />
      <stop id="Stop14930" stop-color="#ff6600" offset="1" />
    </linearGradient>
    <linearGradient gradientUnits="userSpaceOnUse" x1="107.5" y1="0" x2="107.5" y2="39" id="LinearGradient14931">
      <stop id="Stop14932" stop-color="#030e1e" offset="0" />
      <stop id="Stop14933" stop-color="#030e1e" offset="0.15" />
      <stop id="Stop14934" stop-color="#ffcc00" offset="1" />
    </linearGradient>
    <mask fill="white" id="clip14935">
      <path d="M 172.9333333333334 0.8571428571426623  L 0.8857142857142435 0.8571428571426623  L 8.200000000000045 8.857142857142662  L 14.600000000000023 8.857142857142662  L 44.31428571428569 38.79999999999973  L 214.0999999999999 38.79999999999973  L 207 31.59999999999991  L 202.9000000000001 31.59999999999991  L 172.9333333333334 0.8571428571426623  Z " fill-rule="evenodd" />
    </mask>
  </defs>
  <g transform="matrix(1 0 0 1 -8 -50 )">
    <path d="M 172.9333333333334 0.8571428571426623  L 0.8857142857142435 0.8571428571426623  L 8.200000000000045 8.857142857142662  L 14.600000000000023 8.857142857142662  L 44.31428571428569 38.79999999999973  L 214.0999999999999 38.79999999999973  L 207 31.59999999999991  L 202.9000000000001 31.59999999999991  L 172.9333333333334 0.8571428571426623  Z " fill-rule="nonzero" fill="url(#LinearGradient14927)" stroke="none" transform="matrix(1 0 0 1 8 50 )" />
    <path d="M 172.9333333333334 0.8571428571426623  L 0.8857142857142435 0.8571428571426623  L 8.200000000000045 8.857142857142662  L 14.600000000000023 8.857142857142662  L 44.31428571428569 38.79999999999973  L 214.0999999999999 38.79999999999973  L 207 31.59999999999991  L 202.9000000000001 31.59999999999991  L 172.9333333333334 0.8571428571426623  Z " stroke-width="2" stroke="url(#LinearGradient14931)" fill="none" transform="matrix(1 0 0 1 8 50 )" mask="url(#clip14935)" />
  </g>
</svg>