<?xml version="1.0" encoding="utf-8"?>
<svg version="1.1" xmlns:xlink="http://www.w3.org/1999/xlink" width="163px" height="43px" xmlns="http://www.w3.org/2000/svg">
  <defs>
    <linearGradient gradientUnits="userSpaceOnUse" x1="0" y1="21.5" x2="163" y2="21.5" id="LinearGradient15072">
      <stop id="Stop15073" stop-color="#236dc1" offset="0" />
      <stop id="Stop15074" stop-color="#041022" offset="0.33" />
      <stop id="Stop15075" stop-color="#041022" offset="0.67" />
      <stop id="Stop15076" stop-color="#236dc1" offset="1" />
    </linearGradient>
    <linearGradient gradientUnits="userSpaceOnUse" x1="0" y1="21.5" x2="163" y2="21.5" id="LinearGradient15077">
      <stop id="Stop15078" stop-color="#00ccff" offset="0" />
      <stop id="Stop15079" stop-color="#00ccff" offset="0.01" />
      <stop id="Stop15080" stop-color="#041022" offset="0.33" />
      <stop id="Stop15081" stop-color="#041022" offset="0.67" />
      <stop id="Stop15082" stop-color="#00ccff" offset="1" />
    </linearGradient>
    <mask fill="white" id="clip15083">
      <path d="M 81.68571428571431 2.2400000000002365  C 42.77455162129627 2.2580009305434032  12.199999999999818 0.34285714285715585  12.199999999999818 0.34285714285715585  C 12.199999999999818 0.34285714285715585  11.065595834012129 4.906244161696122  7.628571428571376 10.857142857142664  C 4.300571428571857 16.619275598212425  0.3142857142856883 21.37142857142817  0.3142857142856883 21.37142857142817  C 0.3142857142856883 21.37142857142817  4.300571428571857 25.603553330061004  7.628571428571376 31.65714285714284  C 10.762722236290303 37.35812317742648  12.199999999999818 42.171428571428805  12.199999999999818 42.171428571428805  C 12.199999999999818 42.171428571428805  42.77525369501427 39.97561492878276  81.68571428571431 40  C 119.83122343134346 40.023905678396204  149.79999999999973 42.171428571428805  149.79999999999973 42.171428571428805  C 149.79999999999973 42.171428571428805  151.57411945942522 37.61442621456126  155.28571428571422 31.65714285714284  C 158.77051885197488 26.063868478323457  162.37142857142817 21.37142857142817  162.37142857142817 21.37142857142817  C 162.37142857142817 21.37142857142817  158.73462934220152 16.25544657961018  155.28571428571422 10.857142857142664  C 151.35124046281499 4.698833842208842  149.79999999999973 0.34285714285715585  149.79999999999973 0.34285714285715585  C 149.79999999999973 0.34285714285715585  119.83053513026289 2.2223535915254615  81.68571428571431 2.2400000000002365  Z " fill-rule="evenodd" />
    </mask>
  </defs>
  <g transform="matrix(1 0 0 1 -1726 -46 )">
    <path d="M 81.68571428571431 2.2400000000002365  C 42.77455162129627 2.2580009305434032  12.199999999999818 0.34285714285715585  12.199999999999818 0.34285714285715585  C 12.199999999999818 0.34285714285715585  11.065595834012129 4.906244161696122  7.628571428571376 10.857142857142664  C 4.300571428571857 16.619275598212425  0.3142857142856883 21.37142857142817  0.3142857142856883 21.37142857142817  C 0.3142857142856883 21.37142857142817  4.300571428571857 25.603553330061004  7.628571428571376 31.65714285714284  C 10.762722236290303 37.35812317742648  12.199999999999818 42.171428571428805  12.199999999999818 42.171428571428805  C 12.199999999999818 42.171428571428805  42.77525369501427 39.97561492878276  81.68571428571431 40  C 119.83122343134346 40.023905678396204  149.79999999999973 42.171428571428805  149.79999999999973 42.171428571428805  C 149.79999999999973 42.171428571428805  151.57411945942522 37.61442621456126  155.28571428571422 31.65714285714284  C 158.77051885197488 26.063868478323457  162.37142857142817 21.37142857142817  162.37142857142817 21.37142857142817  C 162.37142857142817 21.37142857142817  158.73462934220152 16.25544657961018  155.28571428571422 10.857142857142664  C 151.35124046281499 4.698833842208842  149.79999999999973 0.34285714285715585  149.79999999999973 0.34285714285715585  C 149.79999999999973 0.34285714285715585  119.83053513026289 2.2223535915254615  81.68571428571431 2.2400000000002365  Z " fill-rule="nonzero" fill="url(#LinearGradient15072)" stroke="none" transform="matrix(1 0 0 1 1726 46 )" />
    <path d="M 81.68571428571431 2.2400000000002365  C 42.77455162129627 2.2580009305434032  12.199999999999818 0.34285714285715585  12.199999999999818 0.34285714285715585  C 12.199999999999818 0.34285714285715585  11.065595834012129 4.906244161696122  7.628571428571376 10.857142857142664  C 4.300571428571857 16.619275598212425  0.3142857142856883 21.37142857142817  0.3142857142856883 21.37142857142817  C 0.3142857142856883 21.37142857142817  4.300571428571857 25.603553330061004  7.628571428571376 31.65714285714284  C 10.762722236290303 37.35812317742648  12.199999999999818 42.171428571428805  12.199999999999818 42.171428571428805  C 12.199999999999818 42.171428571428805  42.77525369501427 39.97561492878276  81.68571428571431 40  C 119.83122343134346 40.023905678396204  149.79999999999973 42.171428571428805  149.79999999999973 42.171428571428805  C 149.79999999999973 42.171428571428805  151.57411945942522 37.61442621456126  155.28571428571422 31.65714285714284  C 158.77051885197488 26.063868478323457  162.37142857142817 21.37142857142817  162.37142857142817 21.37142857142817  C 162.37142857142817 21.37142857142817  158.73462934220152 16.25544657961018  155.28571428571422 10.857142857142664  C 151.35124046281499 4.698833842208842  149.79999999999973 0.34285714285715585  149.79999999999973 0.34285714285715585  C 149.79999999999973 0.34285714285715585  119.83053513026289 2.2223535915254615  81.68571428571431 2.2400000000002365  Z " stroke-width="2" stroke="url(#LinearGradient15077)" fill="none" transform="matrix(1 0 0 1 1726 46 )" mask="url(#clip15083)" />
  </g>
</svg>