<?xml version="1.0" encoding="utf-8"?>
<svg version="1.1" xmlns:xlink="http://www.w3.org/1999/xlink" width="178px" height="82px" xmlns="http://www.w3.org/2000/svg">
  <defs>
    <linearGradient gradientUnits="userSpaceOnUse" x1="89" y1="0" x2="89" y2="82" id="LinearGradient435">
      <stop id="Stop436" stop-color="#004779" offset="0" />
      <stop id="Stop437" stop-color="#004779" offset="0.05" />
      <stop id="Stop438" stop-color="#019cad" offset="0.38" />
      <stop id="Stop439" stop-color="#02dee7" offset="0.77" />
      <stop id="Stop440" stop-color="#02dee7" offset="1" />
    </linearGradient>
    <mask fill="white" id="clip441">
      <path d="M 2 0.20000000000004547  L 178 0.20000000000004547  L 178 58.200000000000045  C 178 58.200000000000045  163.98548768826507 58.828936488191744  153.883870967742 65.39999999999998  C 143.70034139446773 72.02434751304816  141.82580645161283 81.79999999999995  141.82580645161283 81.79999999999995  L 2 81.79999999999995  L 2 0.20000000000004547  Z " fill-rule="evenodd" />
    </mask>
  </defs>
  <g transform="matrix(1 0 0 1 -40 -159 )">
    <path d="M 2 0.20000000000004547  L 178 0.20000000000004547  L 178 58.200000000000045  C 178 58.200000000000045  163.98548768826507 58.828936488191744  153.883870967742 65.39999999999998  C 143.70034139446773 72.02434751304816  141.82580645161283 81.79999999999995  141.82580645161283 81.79999999999995  L 2 81.79999999999995  L 2 0.20000000000004547  Z " fill-rule="nonzero" fill="#0b1832" stroke="none" fill-opacity="0.32941176470588235" transform="matrix(1 0 0 1 40 159 )" />
    <path d="M 2 0.20000000000004547  L 178 0.20000000000004547  L 178 58.200000000000045  C 178 58.200000000000045  163.98548768826507 58.828936488191744  153.883870967742 65.39999999999998  C 143.70034139446773 72.02434751304816  141.82580645161283 81.79999999999995  141.82580645161283 81.79999999999995  L 2 81.79999999999995  L 2 0.20000000000004547  Z " stroke-width="2" stroke="url(#LinearGradient435)" fill="none" transform="matrix(1 0 0 1 40 159 )" mask="url(#clip441)" />
  </g>
</svg>