<?xml version="1.0" encoding="utf-8"?>
<svg version="1.1" xmlns:xlink="http://www.w3.org/1999/xlink" width="6px" height="39px" xmlns="http://www.w3.org/2000/svg">
  <defs>
    <linearGradient gradientUnits="userSpaceOnUse" x1="3" y1="0" x2="3" y2="39" id="LinearGradient332">
      <stop id="Stop333" stop-color="#03847a" offset="0" />
      <stop id="Stop334" stop-color="#065a55" offset="1" />
    </linearGradient>
    <linearGradient gradientUnits="userSpaceOnUse" x1="3" y1="0" x2="3" y2="39" id="LinearGradient335">
      <stop id="Stop336" stop-color="#03847a" offset="0" />
      <stop id="Stop337" stop-color="#065a55" offset="1" />
    </linearGradient>
    <mask fill="white" id="clip338">
      <path d="M 0.10714285714285743 7.258333333333334  L 0.10714285714285743 0.325  L 5.678571428571429 6.175  L 5.678571428571429 33.15  L 0.10714285714285743 38.675000000000004  L 0.10714285714285743 32.28333333333333  L 2.1428571428571423 30.766666666666666  L 2.1428571428571423 25.458333333333332  L 3.6428571428571432 24.266666666666666  L 3.6428571428571432 14.950000000000001  L 2.1428571428571423 13.758333333333335  L 2.1428571428571423 8.883333333333333  L 0.10714285714285743 7.258333333333334  Z " fill-rule="evenodd" />
    </mask>
  </defs>
  <g transform="matrix(1 0 0 1 -1848 -128 )">
    <path d="M 0.10714285714285743 7.258333333333334  L 0.10714285714285743 0.325  L 5.678571428571429 6.175  L 5.678571428571429 33.15  L 0.10714285714285743 38.675000000000004  L 0.10714285714285743 32.28333333333333  L 2.1428571428571423 30.766666666666666  L 2.1428571428571423 25.458333333333332  L 3.6428571428571432 24.266666666666666  L 3.6428571428571432 14.950000000000001  L 2.1428571428571423 13.758333333333335  L 2.1428571428571423 8.883333333333333  L 0.10714285714285743 7.258333333333334  Z " fill-rule="nonzero" fill="url(#LinearGradient332)" stroke="none" transform="matrix(1 0 0 1 1848 128 )" />
    <path d="M 0.10714285714285743 7.258333333333334  L 0.10714285714285743 0.325  L 5.678571428571429 6.175  L 5.678571428571429 33.15  L 0.10714285714285743 38.675000000000004  L 0.10714285714285743 32.28333333333333  L 2.1428571428571423 30.766666666666666  L 2.1428571428571423 25.458333333333332  L 3.6428571428571432 24.266666666666666  L 3.6428571428571432 14.950000000000001  L 2.1428571428571423 13.758333333333335  L 2.1428571428571423 8.883333333333333  L 0.10714285714285743 7.258333333333334  Z " stroke-width="2" stroke="url(#LinearGradient335)" fill="none" transform="matrix(1 0 0 1 1848 128 )" mask="url(#clip338)" />
  </g>
</svg>