<?xml version="1.0" encoding="utf-8"?>
<svg version="1.1" xmlns:xlink="http://www.w3.org/1999/xlink" width="6px" height="39px" xmlns="http://www.w3.org/2000/svg">
  <defs>
    <linearGradient gradientUnits="userSpaceOnUse" x1="3" y1="0" x2="3" y2="39" id="LinearGradient375">
      <stop id="Stop376" stop-color="#6666ff" offset="0" />
      <stop id="Stop377" stop-color="#6699ff" offset="1" />
    </linearGradient>
    <linearGradient gradientUnits="userSpaceOnUse" x1="3" y1="0" x2="3" y2="39" id="LinearGradient378">
      <stop id="Stop379" stop-color="#6666ff" offset="0" />
      <stop id="Stop380" stop-color="#6699ff" offset="1" />
    </linearGradient>
    <mask fill="white" id="clip381">
      <path d="M 5.892857142857142 7.258333333333334  L 5.892857142857142 0.325  L 0.3214285714285716 6.175  L 0.3214285714285716 33.15  L 5.892857142857142 38.675000000000004  L 5.892857142857142 32.28333333333333  L 3.8571428571428577 30.766666666666666  L 3.8571428571428577 25.458333333333332  L 2.3571428571428568 24.266666666666666  L 2.3571428571428568 14.950000000000001  L 3.8571428571428577 13.758333333333335  L 3.8571428571428577 8.883333333333333  L 5.892857142857142 7.258333333333334  Z " fill-rule="evenodd" />
    </mask>
  </defs>
  <g transform="matrix(1 0 0 1 -1736 -176 )">
    <path d="M 5.892857142857142 7.258333333333334  L 5.892857142857142 0.325  L 0.3214285714285716 6.175  L 0.3214285714285716 33.15  L 5.892857142857142 38.675000000000004  L 5.892857142857142 32.28333333333333  L 3.8571428571428577 30.766666666666666  L 3.8571428571428577 25.458333333333332  L 2.3571428571428568 24.266666666666666  L 2.3571428571428568 14.950000000000001  L 3.8571428571428577 13.758333333333335  L 3.8571428571428577 8.883333333333333  L 5.892857142857142 7.258333333333334  Z " fill-rule="nonzero" fill="url(#LinearGradient375)" stroke="none" transform="matrix(1 0 0 1 1736 176 )" />
    <path d="M 5.892857142857142 7.258333333333334  L 5.892857142857142 0.325  L 0.3214285714285716 6.175  L 0.3214285714285716 33.15  L 5.892857142857142 38.675000000000004  L 5.892857142857142 32.28333333333333  L 3.8571428571428577 30.766666666666666  L 3.8571428571428577 25.458333333333332  L 2.3571428571428568 24.266666666666666  L 2.3571428571428568 14.950000000000001  L 3.8571428571428577 13.758333333333335  L 3.8571428571428577 8.883333333333333  L 5.892857142857142 7.258333333333334  Z " stroke-width="2" stroke="url(#LinearGradient378)" fill="none" transform="matrix(1 0 0 1 1736 176 )" mask="url(#clip381)" />
  </g>
</svg>