<?xml version="1.0" encoding="utf-8"?>
<svg version="1.1" xmlns:xlink="http://www.w3.org/1999/xlink" width="246px" height="52px" xmlns="http://www.w3.org/2000/svg">
  <defs>
    <mask fill="white" id="clip194">
      <path d="M 225.75 0.25  L 21 0.25  L 0.75 27.000000000000004  L 21 51.25  L 225.75 51.25  L 245.75 27.000000000000004  L 225.75 0.25  Z " fill-rule="evenodd" />
    </mask>
  </defs>
  <g transform="matrix(1 0 0 1 -847 -32 )">
    <path d="M 225.75 0.25  L 21 0.25  L 0.75 27.000000000000004  L 21 51.25  L 225.75 51.25  L 245.75 27.000000000000004  L 225.75 0.25  Z " fill-rule="nonzero" fill="#ffffff" stroke="none" fill-opacity="0" transform="matrix(1 0 0 1 847 32 )" />
    <path d="M 225.75 0.25  L 21 0.25  L 0.75 27.000000000000004  L 21 51.25  L 225.75 51.25  L 245.75 27.000000000000004  L 225.75 0.25  Z " stroke-width="4" stroke="#1c52bb" fill="none" transform="matrix(1 0 0 1 847 32 )" mask="url(#clip194)" />
  </g>
</svg>