<?xml version="1.0" encoding="utf-8"?>
<svg version="1.1" xmlns:xlink="http://www.w3.org/1999/xlink" width="15px" height="18px" xmlns="http://www.w3.org/2000/svg">
  <defs>
    <mask fill="white" id="clip195">
      <path d="M 15 5.029411764705882  L 7.788461538461511 0  L 0 5.029411764705882  L 0 13.76470588235294  L 7.788461538461511 18  L 15 13.76470588235294  L 15 5.029411764705882  Z " fill-rule="evenodd" />
    </mask>
  </defs>
  <g transform="matrix(1 0 0 1 -1876 -213 )">
    <path d="M 15 5.029411764705882  L 7.788461538461511 0  L 0 5.029411764705882  L 0 13.76470588235294  L 7.788461538461511 18  L 15 13.76470588235294  L 15 5.029411764705882  Z " fill-rule="nonzero" fill="#226f86" stroke="none" transform="matrix(1 0 0 1 1876 213 )" />
    <path d="M 15 5.029411764705882  L 7.788461538461511 0  L 0 5.029411764705882  L 0 13.76470588235294  L 7.788461538461511 18  L 15 13.76470588235294  L 15 5.029411764705882  Z " stroke-width="4" stroke="#28bcca" fill="none" transform="matrix(1 0 0 1 1876 213 )" mask="url(#clip195)" />
  </g>
</svg>