<?xml version="1.0" encoding="utf-8"?>
<svg version="1.1" xmlns:xlink="http://www.w3.org/1999/xlink" width="209px" height="120px" xmlns="http://www.w3.org/2000/svg">
  <defs>
    <linearGradient gradientUnits="userSpaceOnUse" x1="0" y1="60" x2="209" y2="60" id="LinearGradient240">
      <stop id="Stop241" stop-color="#10b5c9" offset="0" />
      <stop id="Stop242" stop-color="#12182e" offset="0.44" />
      <stop id="Stop243" stop-color="#12182e" offset="0.56" />
      <stop id="Stop244" stop-color="#10b5c9" offset="1" />
    </linearGradient>
    <mask fill="white" id="clip245">
      <path d="M 26.399999999999977 0.599999999999909  L 0.7999999999999545 15  L 0.7999999999999545 105.79999999999995  L 26.399999999999977 119.40000000000009  L 184 119.40000000000009  L 208.4000000000001 105.79999999999995  L 208.4000000000001 15  L 184 0.599999999999909  L 26.399999999999977 0.599999999999909  Z " fill-rule="evenodd" />
    </mask>
  </defs>
  <g transform="matrix(1 0 0 1 -337 -139 )">
    <path d="M 26.399999999999977 0.599999999999909  L 0.7999999999999545 15  L 0.7999999999999545 105.79999999999995  L 26.399999999999977 119.40000000000009  L 184 119.40000000000009  L 208.4000000000001 105.79999999999995  L 208.4000000000001 15  L 184 0.599999999999909  L 26.399999999999977 0.599999999999909  Z " fill-rule="nonzero" fill="#ffffff" stroke="none" fill-opacity="0" transform="matrix(1 0 0 1 337 139 )" />
    <path d="M 26.399999999999977 0.599999999999909  L 0.7999999999999545 15  L 0.7999999999999545 105.79999999999995  L 26.399999999999977 119.40000000000009  L 184 119.40000000000009  L 208.4000000000001 105.79999999999995  L 208.4000000000001 15  L 184 0.599999999999909  L 26.399999999999977 0.599999999999909  Z " stroke-width="4" stroke="url(#LinearGradient240)" fill="none" transform="matrix(1 0 0 1 337 139 )" mask="url(#clip245)" />
  </g>
</svg>