<?xml version="1.0" encoding="utf-8"?>
<svg version="1.1" xmlns:xlink="http://www.w3.org/1999/xlink" width="178px" height="82px" xmlns="http://www.w3.org/2000/svg">
  <defs>
    <linearGradient gradientUnits="userSpaceOnUse" x1="89" y1="0" x2="89" y2="82" id="LinearGradient387">
      <stop id="Stop388" stop-color="#004779" offset="0" />
      <stop id="Stop389" stop-color="#004779" offset="0.05" />
      <stop id="Stop390" stop-color="#019cad" offset="0.38" />
      <stop id="Stop391" stop-color="#02dee7" offset="0.77" />
      <stop id="Stop392" stop-color="#02dee7" offset="1" />
    </linearGradient>
    <mask fill="white" id="clip393">
      <path d="M 176 0.20000000000004547  L 0 0.20000000000004547  L 0 58.200000000000045  C 0 58.200000000000045  14.01451231173495 58.828936488191744  24.116129032257998 65.39999999999998  C 34.29965860553229 72.02434751304816  36.174193548387166 81.79999999999995  36.174193548387166 81.79999999999995  L 176 81.79999999999995  L 176 0.20000000000004547  Z " fill-rule="evenodd" />
    </mask>
  </defs>
  <g transform="matrix(1 0 0 1 -228 -159 )">
    <path d="M 176 0.20000000000004547  L 0 0.20000000000004547  L 0 58.200000000000045  C 0 58.200000000000045  14.01451231173495 58.828936488191744  24.116129032257998 65.39999999999998  C 34.29965860553229 72.02434751304816  36.174193548387166 81.79999999999995  36.174193548387166 81.79999999999995  L 176 81.79999999999995  L 176 0.20000000000004547  Z " fill-rule="nonzero" fill="#041531" stroke="none" fill-opacity="0.32941176470588235" transform="matrix(1 0 0 1 228 159 )" />
    <path d="M 176 0.20000000000004547  L 0 0.20000000000004547  L 0 58.200000000000045  C 0 58.200000000000045  14.01451231173495 58.828936488191744  24.116129032257998 65.39999999999998  C 34.29965860553229 72.02434751304816  36.174193548387166 81.79999999999995  36.174193548387166 81.79999999999995  L 176 81.79999999999995  L 176 0.20000000000004547  Z " stroke-width="2" stroke="url(#LinearGradient387)" fill="none" transform="matrix(1 0 0 1 228 159 )" mask="url(#clip393)" />
  </g>
</svg>