<?xml version="1.0" encoding="utf-8"?>
<svg version="1.1" xmlns:xlink="http://www.w3.org/1999/xlink" width="178px" height="82px" xmlns="http://www.w3.org/2000/svg">
  <defs>
    <linearGradient gradientUnits="userSpaceOnUse" x1="89" y1="0" x2="89" y2="82" id="LinearGradient403">
      <stop id="Stop404" stop-color="#004779" offset="0" />
      <stop id="Stop405" stop-color="#004779" offset="0.05" />
      <stop id="Stop406" stop-color="#019cad" offset="0.38" />
      <stop id="Stop407" stop-color="#02dee7" offset="0.77" />
      <stop id="Stop408" stop-color="#02dee7" offset="1" />
    </linearGradient>
    <mask fill="white" id="clip409">
      <path d="M 176 81.79999999999995  L 0 81.79999999999995  L 0 23.799999999999958  C 0 23.799999999999958  14.01451231173495 23.171063511808256  24.116129032257998 16.600000000000023  C 34.29965860553229 9.975652486951848  36.174193548387166 0.2000000000000457  36.174193548387166 0.2000000000000457  L 176 0.2000000000000457  L 176 81.79999999999995  Z " fill-rule="evenodd" />
    </mask>
  </defs>
  <g transform="matrix(1 0 0 1 -228 -254 )">
    <path d="M 176 81.79999999999995  L 0 81.79999999999995  L 0 23.799999999999958  C 0 23.799999999999958  14.01451231173495 23.171063511808256  24.116129032257998 16.600000000000023  C 34.29965860553229 9.975652486951848  36.174193548387166 0.2000000000000457  36.174193548387166 0.2000000000000457  L 176 0.2000000000000457  L 176 81.79999999999995  Z " fill-rule="nonzero" fill="#041531" stroke="none" fill-opacity="0.32941176470588235" transform="matrix(1 0 0 1 228 254 )" />
    <path d="M 176 81.79999999999995  L 0 81.79999999999995  L 0 23.799999999999958  C 0 23.799999999999958  14.01451231173495 23.171063511808256  24.116129032257998 16.600000000000023  C 34.29965860553229 9.975652486951848  36.174193548387166 0.2000000000000457  36.174193548387166 0.2000000000000457  L 176 0.2000000000000457  L 176 81.79999999999995  Z " stroke-width="2" stroke="url(#LinearGradient403)" fill="none" transform="matrix(1 0 0 1 228 254 )" mask="url(#clip409)" />
  </g>
</svg>