<?xml version="1.0" encoding="utf-8"?>
<svg version="1.1" xmlns:xlink="http://www.w3.org/1999/xlink" width="178px" height="82px" xmlns="http://www.w3.org/2000/svg">
  <defs>
    <linearGradient gradientUnits="userSpaceOnUse" x1="89" y1="0" x2="89" y2="82" id="LinearGradient419">
      <stop id="Stop420" stop-color="#004779" offset="0" />
      <stop id="Stop421" stop-color="#004779" offset="0.05" />
      <stop id="Stop422" stop-color="#019cad" offset="0.38" />
      <stop id="Stop423" stop-color="#02dee7" offset="0.77" />
      <stop id="Stop424" stop-color="#02dee7" offset="1" />
    </linearGradient>
    <mask fill="white" id="clip425">
      <path d="M 2 81.79999999999995  L 178 81.79999999999995  L 178 23.799999999999958  C 178 23.799999999999958  163.98548768826507 23.171063511808256  153.883870967742 16.600000000000023  C 143.70034139446773 9.975652486951848  141.82580645161283 0.2000000000000457  141.82580645161283 0.2000000000000457  L 2 0.2000000000000457  L 2 81.79999999999995  Z " fill-rule="evenodd" />
    </mask>
  </defs>
  <g transform="matrix(1 0 0 1 -40 -254 )">
    <path d="M 2 81.79999999999995  L 178 81.79999999999995  L 178 23.799999999999958  C 178 23.799999999999958  163.98548768826507 23.171063511808256  153.883870967742 16.600000000000023  C 143.70034139446773 9.975652486951848  141.82580645161283 0.2000000000000457  141.82580645161283 0.2000000000000457  L 2 0.2000000000000457  L 2 81.79999999999995  Z " fill-rule="nonzero" fill="#041531" stroke="none" fill-opacity="0.32941176470588235" transform="matrix(1 0 0 1 40 254 )" />
    <path d="M 2 81.79999999999995  L 178 81.79999999999995  L 178 23.799999999999958  C 178 23.799999999999958  163.98548768826507 23.171063511808256  153.883870967742 16.600000000000023  C 143.70034139446773 9.975652486951848  141.82580645161283 0.2000000000000457  141.82580645161283 0.2000000000000457  L 2 0.2000000000000457  L 2 81.79999999999995  Z " stroke-width="2" stroke="url(#LinearGradient419)" fill="none" transform="matrix(1 0 0 1 40 254 )" mask="url(#clip425)" />
  </g>
</svg>