<?xml version="1.0" encoding="utf-8"?>
<svg version="1.1" xmlns:xlink="http://www.w3.org/1999/xlink" width="178px" height="82px" xmlns="http://www.w3.org/2000/svg">
  <defs>
    <linearGradient gradientUnits="userSpaceOnUse" x1="15.072580645161286" y1="-10.499999999999998" x2="162.92741935483872" y2="92.50000000000001" id="LinearGradient442">
      <stop id="Stop443" stop-color="#10061e" offset="0" />
      <stop id="Stop444" stop-color="#300e26" offset="1" />
    </linearGradient>
    <linearGradient gradientUnits="userSpaceOnUse" x1="89" y1="0" x2="89" y2="82" id="LinearGradient445">
      <stop id="Stop446" stop-color="#852447" offset="0" />
      <stop id="Stop447" stop-color="#520b78" offset="1" />
    </linearGradient>
    <mask fill="white" id="clip448">
      <path d="M 2 0.20000000000004547  L 178 0.20000000000004547  L 178 58.200000000000045  C 178 58.200000000000045  163.98548768826507 58.828936488191744  153.883870967742 65.39999999999998  C 143.70034139446773 72.02434751304816  141.82580645161283 81.79999999999995  141.82580645161283 81.79999999999995  L 2 81.79999999999995  L 2 0.20000000000004547  Z " fill-rule="evenodd" />
    </mask>
  </defs>
  <g transform="matrix(1 0 0 1 -40 -159 )">
    <path d="M 2 0.20000000000004547  L 178 0.20000000000004547  L 178 58.200000000000045  C 178 58.200000000000045  163.98548768826507 58.828936488191744  153.883870967742 65.39999999999998  C 143.70034139446773 72.02434751304816  141.82580645161283 81.79999999999995  141.82580645161283 81.79999999999995  L 2 81.79999999999995  L 2 0.20000000000004547  Z " fill-rule="nonzero" fill="url(#LinearGradient442)" stroke="none" transform="matrix(1 0 0 1 40 159 )" />
    <path d="M 2 0.20000000000004547  L 178 0.20000000000004547  L 178 58.200000000000045  C 178 58.200000000000045  163.98548768826507 58.828936488191744  153.883870967742 65.39999999999998  C 143.70034139446773 72.02434751304816  141.82580645161283 81.79999999999995  141.82580645161283 81.79999999999995  L 2 81.79999999999995  L 2 0.20000000000004547  Z " stroke-width="2" stroke="url(#LinearGradient445)" fill="none" transform="matrix(1 0 0 1 40 159 )" mask="url(#clip448)" />
  </g>
</svg>